<?xml version="1.0" encoding="UTF-8"?>
<svg id="Layer_2" data-name="Layer 2" xmlns="http://www.w3.org/2000/svg" viewBox="0 0 894.67 945.13">
  <defs>
    <style>
      .cls-1 {
        fill: #000;
        stroke-width: 0px;
      }
    </style>
  </defs>
  <g id="Customer_service_icon" data-name="Customer service icon">
    <g id="Customer_service_icon-2" data-name="Customer service icon">
      <path class="cls-1" d="M863.03,513.24c-26.4-11.61-56.78-.3-69.18,25.72-.04.09-.08.18-.12.27l-47.88,107.09c-12.94-11.01-31.16-14.94-48.39-8.87l-64.34,22.67c-17.27,6.09-34.81,8.95-52.12,8.51-1.2-.03-2.39-.04-3.58-.04-55.32,0-92.39,32.66-113.88,60.39-6.87,8.86-12.56,18.43-17.04,28.52-4.21-8.78-9.34-17.13-15.36-24.9-21.95-28.32-60.12-61.82-117.46-60.34-17.32.43-34.85-2.43-52.12-8.51l-64.34-22.67c-17.24-6.07-35.45-2.15-48.39,8.87l-47.88-107.09c-.04-.09-.08-.18-.12-.27-12.4-26.02-42.79-37.32-69.18-25.72-26.25,11.54-38.63,42.46-27.59,68.93l86.23,206.77c6.65,15.95,17.82,29.38,32.28,38.84l3.2,2.09c8.09,5.29,16.95,9.15,26.34,11.48l117.76,29.21c13.91,3.45,24.02,15.37,25.17,29.66l2.4,29.97c.51,6.44,5.9,11.32,12.24,11.32.33,0,.66-.01.99-.04,6.77-.54,11.82-6.47,11.28-13.24l-2.4-29.97c-1.99-24.84-19.57-45.57-43.76-51.57l-117.76-29.21c-6.7-1.66-13.03-4.42-18.8-8.2l-3.2-2.09c-10.33-6.75-18.29-16.34-23.04-27.72l-86.23-206.77c-5.92-14.19.72-30.77,14.79-36.95,14.11-6.2,30.34-.2,37.03,13.67l54.51,121.93c-6.31,23.74,6.02,49.2,29.3,58.55l106.36,42.73c6.3,2.53,13.46-.52,15.99-6.82,2.53-6.3-.52-13.46-6.83-15.99l-106.36-42.73c-12.56-5.05-18.78-19.41-13.88-32.02,4.88-12.56,18.66-18.89,31.37-14.41l64.34,22.67c20.11,7.09,40.6,10.44,60.92,9.9,47.05-1.13,78.92,26.99,97.4,50.82,12.93,16.69,20.9,36.61,23.15,57.74-.05.74-.11,1.48-.14,2.23l-5.23,124.68c-.29,6.79,4.98,12.52,11.77,12.8.18,0,.35.01.52.01,6.55,0,12-5.17,12.28-11.78l5.22-124.46c.26-1.19.4-2.43.29-3.71,0-.1-.02-.21-.03-.31,1.76-22.28,9.82-43.24,23.45-60.83,18.47-23.84,50.38-51.95,97.4-50.82,20.33.54,40.81-2.82,60.92-9.9l64.34-22.67c12.71-4.48,26.49,1.85,31.37,14.41,4.9,12.61-1.32,26.97-13.87,32.02l-106.36,42.73c-6.3,2.53-9.36,9.69-6.82,15.99,2.53,6.3,9.68,9.36,15.99,6.82l106.36-42.73c23.29-9.35,35.61-34.81,29.3-58.55l54.52-121.93c6.69-13.86,22.92-19.87,37.03-13.66,14.07,6.19,20.71,22.76,14.79,36.95l-86.23,206.77c-4.75,11.39-12.71,20.97-23.04,27.73l-3.2,2.09c-5.78,3.78-12.1,6.53-18.8,8.2l-117.76,29.21c-24.19,6-41.78,26.72-43.76,51.56l-2.4,29.98c-.54,6.77,4.51,12.7,11.28,13.24.33.03.66.04.99.04,6.35,0,11.73-4.88,12.24-11.32l2.4-29.98c1.14-14.29,11.26-26.2,25.17-29.65l117.76-29.21c9.38-2.33,18.24-6.19,26.34-11.48l3.2-2.09c14.47-9.46,25.63-22.89,32.28-38.84l86.23-206.77c11.04-26.47-1.34-57.39-27.59-68.93Z"/>
      <path class="cls-1" d="M325.63,382.87c.04,5.89.08,10.81.08,14.69,0,.27,0,.55.03.82,1.68,25.19,13.13,36.43,22.44,41.43,5.63,3.02,12.06,4.52,18.69,4.52,1.99,0,4-.14,6.02-.41v207.17c0,6.79,5.5,12.3,12.3,12.3s12.3-5.51,12.3-12.3v-380.88c0-6.79-5.5-12.3-12.3-12.3s-12.3,5.5-12.3,12.3v148.64c-4.79,1.37-9.55,1.19-13.08-.71-6.84-3.67-8.95-13.36-9.51-21.01,0-3.85-.04-8.68-.07-14.42-.2-29.23-.57-83.63,2.31-152.24,1.12-26.71,26.16-32.31,46.96-32.31h47.64c.07,0,.14-.02.21-.02.07,0,.14.02.21.02h47.64c20.8,0,45.83,5.61,46.96,32.31,2.89,68.61,2.52,123.02,2.32,152.25-.04,5.74-.07,10.57-.08,14.42-.56,7.64-2.67,17.34-9.51,21.01-3.63,1.95-8.57,2.1-13.49.6v-148.53c0-6.79-5.51-12.3-12.3-12.3s-12.3,5.5-12.3,12.3v380.88c0,6.79,5.51,12.3,12.3,12.3s12.3-5.51,12.3-12.3v-207.23c2.15.31,4.3.47,6.43.47,6.64,0,13.07-1.5,18.69-4.52,9.31-5,20.76-16.24,22.44-41.43.02-.27.03-.54.03-.82,0-3.87.03-8.79.07-14.68.2-29.44.58-84.24-2.34-153.45-1.47-34.98-28.21-55.87-71.53-55.87h-47.64c-.07,0-.14.02-.21.02-.07,0-.14-.02-.21-.02h-47.64c-43.32,0-70.06,20.89-71.53,55.87-2.91,69.21-2.54,124-2.34,153.44Z"/>
      <path class="cls-1" d="M446.21,412.34c-6.79.06-12.25,5.61-12.19,12.4l1.85,225.24c.06,6.76,5.55,12.2,12.29,12.2h.1c6.79-.06,12.25-5.61,12.2-12.4l-1.85-225.24c-.06-6.79-5.53-12.31-12.4-12.19Z"/>
      <path class="cls-1" d="M447.34,162.47c44.79,0,81.24-36.44,81.24-81.23S492.13,0,447.34,0s-81.23,36.44-81.23,81.23,36.44,81.23,81.23,81.23ZM447.34,24.62c31.22,0,56.62,25.4,56.62,56.62s-25.4,56.62-56.62,56.62-56.62-25.4-56.62-56.62,25.4-56.62,56.62-56.62Z"/>
      <path class="cls-1" d="M145,407.79c0,.27,0,.55.03.82,1.6,24,12.57,34.75,21.49,39.54,5.41,2.91,11.59,4.35,17.97,4.35,1.87,0,3.76-.13,5.65-.38l.44,103.73c.03,6.77,5.53,12.25,12.29,12.25h.05c6.79-.03,12.27-5.56,12.24-12.35l-1.13-267.75c-.03-6.77-5.53-12.24-12.29-12.24h-.05c-6.79.03-12.27,5.56-12.24,12.35l.59,138.99c-4.37,1.26-8.69,1.11-11.88-.6-6.13-3.29-8.05-12.13-8.56-19.12,0-3.62-.03-8.15-.07-13.54-.19-27.48-.54-78.63,2.18-143.12,1.04-24.53,24.24-29.68,43.5-29.68l81.23.2h.03c6.78,0,12.28-5.48,12.29-12.27.02-6.79-5.47-12.31-12.27-12.33l-81.26-.2c-41.23,0-66.69,19.9-68.1,53.24-2.75,65.1-2.39,116.63-2.2,144.32.04,5.53.07,10.16.07,13.8Z"/>
      <path class="cls-1" d="M260.31,187.46c42.58,0,77.23-34.59,77.23-77.11s-34.65-77.11-77.23-77.11-77.23,34.59-77.23,77.11,34.65,77.11,77.23,77.11ZM260.31,57.84c29.02,0,52.64,23.56,52.64,52.52s-23.61,52.52-52.64,52.52-52.64-23.56-52.64-52.52,23.61-52.52,52.64-52.52Z"/>
      <path class="cls-1" d="M598.18,196.94c-6.79.02-12.28,5.54-12.27,12.33.02,6.78,5.52,12.27,12.3,12.27h.03l81.2-.2c19.28,0,42.49,5.16,43.53,29.76,2.72,64.62,2.37,115.86,2.18,143.39-.04,5.4-.07,9.94-.07,13.57-.51,7.02-2.43,15.89-8.58,19.19-3.04,1.63-7.12,1.83-11.27.75v-139.48c0-6.79-5.51-12.3-12.3-12.3s-12.3,5.5-12.3,12.3v279.36c0,6.79,5.51,12.3,12.3,12.3s12.3-5.51,12.3-12.3v-114.92c1.66.19,3.31.31,4.96.31,6.37,0,12.54-1.44,17.95-4.34,8.93-4.79,19.92-15.56,21.52-39.61.02-.27.03-.54.03-.82,0-3.65.03-8.28.07-13.83.19-27.74.54-79.38-2.2-144.59-1.4-33.39-26.86-53.32-68.13-53.32l-81.23.2Z"/>
      <path class="cls-1" d="M634.36,187.72c42.59,0,77.24-34.65,77.24-77.24s-34.65-77.24-77.24-77.24-77.24,34.65-77.24,77.24,34.65,77.24,77.24,77.24ZM634.36,57.85c29.02,0,52.62,23.61,52.62,52.63s-23.61,52.63-52.62,52.63-52.63-23.61-52.63-52.63,23.61-52.63,52.63-52.63Z"/>
    </g>
  </g>
</svg>